<svg xmlns="http://www.w3.org/2000/svg" xmlns:xlink="http://www.w3.org/1999/xlink" width="500" zoomAndPan="magnify" viewBox="0 0 375 374.999991" height="500" preserveAspectRatio="xMidYMid meet" version="1.0"><defs><clipPath id="c3d871db89"><path d="M 0 48 L 339 48 L 339 326 L 0 326 Z M 0 48 " clip-rule="nonzero"/></clipPath><clipPath id="d366490e2a"><path d="M 261.359375 390.871094 L -31.09375 277.945312 L 81.828125 -14.507812 L 374.285156 98.414062 Z M 261.359375 390.871094 " clip-rule="nonzero"/></clipPath><clipPath id="2a518b8a13"><path d="M 66 5 L 318 5 L 318 238 L 66 238 Z M 66 5 " clip-rule="nonzero"/></clipPath><clipPath id="838f0ad8ca"><path d="M 261.359375 342.871094 L -31.09375 229.945312 L 81.828125 -62.507812 L 374.285156 50.414062 Z M 261.359375 342.871094 " clip-rule="nonzero"/></clipPath><clipPath id="ade461dd85"><path d="M 374.246094 50.511719 L 81.789062 -62.410156 L -31.132812 230.042969 L 261.324219 342.96875 Z M 374.246094 50.511719 " clip-rule="nonzero"/></clipPath><clipPath id="e92cc2edc7"><rect x="0" width="339" y="0" height="278"/></clipPath></defs><g clip-path="url(#c3d871db89)"><g clip-path="url(#d366490e2a)"><g transform="matrix(1, 0, 0, 1, 0, 48)"><g clip-path="url(#e92cc2edc7)"><g clip-path="url(#2a518b8a13)"><g clip-path="url(#838f0ad8ca)"><g clip-path="url(#ade461dd85)"><path fill="#007bff" d="M 222.160156 208.753906 C 213.082031 232.265625 186.566406 244 163.0625 234.925781 C 159.695312 233.625 158.023438 229.847656 159.324219 226.484375 L 173.433594 189.9375 L 142.980469 178.179688 C 90.84375 158.050781 64.03125 100.417969 81.421875 47.929688 C 81.421875 47.929688 59.183594 36.011719 68.199219 9.328125 C 69.359375 5.914062 73.273438 4.289062 76.644531 5.589844 L 95.480469 12.863281 C 104.78125 16.453125 111.113281 25.074219 111.113281 25.074219 C 111.113281 25.074219 121.421875 22.878906 130.894531 26.539062 L 149.730469 33.8125 C 153.101562 35.113281 154.769531 38.890625 153.472656 42.253906 C 148.234375 55.8125 134.507812 64.25 118.839844 62.085938 C 118.839844 62.085938 115.730469 92.148438 147.324219 96.695312 C 162.09375 98.824219 177.273438 95.257812 190.917969 89.214844 C 216.203125 78.015625 244.542969 77.480469 273.40625 88.558594 C 306.558594 101.285156 325.285156 140.683594 314.109375 169.621094 C 287.425781 238.734375 222.160156 208.753906 222.160156 208.753906 Z M 278.421875 153.488281 L 278.363281 153.464844 C 274.992188 152.167969 271.21875 153.84375 269.917969 157.207031 C 268.621094 160.566406 270.289062 164.347656 273.660156 165.648438 C 277.019531 166.945312 280.832031 165.28125 282.132812 161.921875 C 283.429688 158.558594 281.785156 154.789062 278.421875 153.488281 Z M 278.421875 153.488281 " fill-opacity="1" fill-rule="nonzero"/></g></g></g></g></g></g></g></svg>