<svg xmlns="http://www.w3.org/2000/svg" xmlns:xlink="http://www.w3.org/1999/xlink" width="1522" zoomAndPan="magnify" viewBox="0 0 1141.5 199.499995" height="266" preserveAspectRatio="xMidYMid meet" version="1.0"><defs><g/><clipPath id="7f989e525c"><path d="M 453.503906 0 L 1138.75 0 L 1138.75 199 L 453.503906 199 Z M 453.503906 0 " clip-rule="nonzero"/></clipPath><clipPath id="b43f2a18d6"><path d="M 1138.875 2.242188 L 1138.875 196.757812 C 1138.875 197.351562 1138.636719 197.921875 1138.214844 198.34375 C 1137.796875 198.765625 1137.226562 199 1136.628906 199 L 455.75 199 C 455.152344 199 454.582031 198.765625 454.164062 198.34375 C 453.742188 197.921875 453.503906 197.351562 453.503906 196.757812 L 453.503906 2.242188 C 453.503906 1.648438 453.742188 1.078125 454.164062 0.65625 C 454.582031 0.238281 455.152344 0 455.75 0 L 1136.628906 0 C 1137.226562 0 1137.796875 0.238281 1138.214844 0.65625 C 1138.636719 1.078125 1138.875 1.648438 1138.875 2.242188 Z M 1138.875 2.242188 " clip-rule="nonzero"/></clipPath><clipPath id="383dae4770"><path d="M 2.089844 0 L 460.699219 0 L 460.699219 198.988281 L 2.089844 198.988281 Z M 2.089844 0 " clip-rule="nonzero"/></clipPath><clipPath id="cad22272da"><path d="M 460.246094 2.242188 L 460.246094 196.746094 C 460.246094 197.984375 459.242188 198.988281 458.003906 198.988281 L 4.332031 198.988281 C 3.09375 198.988281 2.089844 197.984375 2.089844 196.746094 L 2.089844 2.242188 C 2.089844 1.003906 3.09375 0 4.332031 0 L 458.003906 0 C 459.242188 0 460.246094 1.003906 460.246094 2.242188 Z M 460.246094 2.242188 " clip-rule="nonzero"/></clipPath><clipPath id="1ceb4b1a85"><path d="M 0.0898438 0 L 458 0 L 458 198.988281 L 0.0898438 198.988281 Z M 0.0898438 0 " clip-rule="nonzero"/></clipPath><clipPath id="2409de6a3e"><path d="M 458.246094 2.242188 L 458.246094 196.746094 C 458.246094 197.984375 457.242188 198.988281 456.003906 198.988281 L 2.332031 198.988281 C 1.09375 198.988281 0.0898438 197.984375 0.0898438 196.746094 L 0.0898438 2.242188 C 0.0898438 1.003906 1.09375 0 2.332031 0 L 456.003906 0 C 457.242188 0 458.246094 1.003906 458.246094 2.242188 Z M 458.246094 2.242188 " clip-rule="nonzero"/></clipPath><clipPath id="d024e9a433"><rect x="0" width="459" y="0" height="199"/></clipPath><clipPath id="a1c161770a"><rect x="0" width="355" y="0" height="185"/></clipPath><clipPath id="71bee1c3c4"><rect x="0" width="609" y="0" height="183"/></clipPath></defs><g clip-path="url(#7f989e525c)"><g clip-path="url(#b43f2a18d6)"><path stroke-linecap="butt" transform="matrix(0.748125, 0, 0, 0.748125, 453.505207, 0.000000000000042526)" fill="none" stroke-linejoin="miter" d="M 916.116686 2.997076 L 916.116686 263.001254 C 916.116686 263.794905 915.798182 264.557228 915.234272 265.121137 C 914.675584 265.685047 913.913261 265.99833 913.114389 265.99833 L 3.000559 265.99833 C 2.201687 265.99833 1.439364 265.685047 0.880676 265.121137 C 0.316766 264.557228 -0.00173845 263.794905 -0.00173845 263.001254 L -0.00173845 2.997076 C -0.00173845 2.203425 0.316766 1.441103 0.880676 0.877193 C 1.439364 0.318505 2.201687 -0.000000000000056843 3.000559 -0.000000000000056843 L 913.114389 -0.000000000000056843 C 913.913261 -0.000000000000056843 914.675584 0.318505 915.234272 0.877193 C 915.798182 1.441103 916.116686 2.203425 916.116686 2.997076 Z M 916.116686 2.997076 " stroke="#212121" stroke-width="14" stroke-opacity="1" stroke-miterlimit="4"/></g></g><g clip-path="url(#383dae4770)"><g clip-path="url(#cad22272da)"><g transform="matrix(1, 0, 0, 1, 2, 0)"><g clip-path="url(#d024e9a433)"><g clip-path="url(#1ceb4b1a85)"><g clip-path="url(#2409de6a3e)"><path fill="#007bff" d="M 0.0898438 0 L 457.921875 0 L 457.921875 198.988281 L 0.0898438 198.988281 Z M 0.0898438 0 " fill-opacity="1" fill-rule="nonzero"/></g></g></g></g></g></g><g transform="matrix(1, 0, 0, 1, 59, 0)"><g clip-path="url(#a1c161770a)"><g fill="#ffffff" fill-opacity="1"><g transform="translate(0.660248, 149.373417)"><g><path d="M 6.765625 -91.09375 L 45.796875 -91.09375 C 51.347656 -91.09375 56.078125 -90.050781 59.984375 -87.96875 C 63.890625 -85.882812 66.796875 -83.082031 68.703125 -79.5625 C 70.609375 -76.050781 71.5625 -72.171875 71.5625 -67.921875 C 71.5625 -62.804688 70.257812 -58.617188 67.65625 -55.359375 C 65.0625 -52.109375 62.03125 -50.007812 58.5625 -49.0625 L 58.5625 -48.140625 C 61.15625 -47.796875 63.863281 -46.800781 66.6875 -45.15625 C 69.507812 -43.507812 71.914062 -41.101562 73.90625 -37.9375 C 75.90625 -34.769531 76.90625 -30.929688 76.90625 -26.421875 C 76.90625 -22.078125 75.925781 -17.863281 73.96875 -13.78125 C 72.019531 -9.707031 68.921875 -6.367188 64.671875 -3.765625 C 60.421875 -1.171875 55.128906 0.125 48.796875 0.125 L 6.765625 0.125 Z M 39.6875 -54 C 43.238281 -54 46.273438 -54.820312 48.796875 -56.46875 C 51.316406 -58.125 52.578125 -60.859375 52.578125 -64.671875 C 52.578125 -68.398438 51.296875 -71.066406 48.734375 -72.671875 C 46.171875 -74.273438 43.15625 -75.078125 39.6875 -75.078125 L 26.671875 -75.078125 L 26.671875 -54 Z M 44.25 -16 C 47.800781 -16 50.921875 -16.863281 53.609375 -18.59375 C 56.296875 -20.332031 57.640625 -23.375 57.640625 -27.71875 C 57.640625 -31.96875 56.273438 -35.003906 53.546875 -36.828125 C 50.816406 -38.648438 47.71875 -39.5625 44.25 -39.5625 L 26.671875 -39.5625 L 26.671875 -16 Z M 44.25 -16 "/></g></g></g><g fill="#ffffff" fill-opacity="1"><g transform="translate(91.735954, 149.373417)"><g><path d="M 65.453125 -17.703125 L 65.453125 0 L 6.765625 0 L 6.765625 -91.09375 L 27.203125 -91.09375 L 27.0625 -17.703125 Z M 65.453125 -17.703125 "/></g></g></g><g fill="#ffffff" fill-opacity="1"><g transform="translate(171.232322, 149.373417)"><g><path d="M 44.640625 1.296875 C 33.535156 1.296875 24.445312 -1.972656 17.375 -8.515625 C 10.300781 -15.066406 6.765625 -25.5 6.765625 -39.8125 L 6.765625 -91.09375 L 26.9375 -91.09375 L 26.9375 -41.25 C 26.9375 -25.8125 32.835938 -18.09375 44.640625 -18.09375 C 50.960938 -18.09375 55.46875 -20.21875 58.15625 -24.46875 C 60.851562 -28.71875 62.203125 -34.3125 62.203125 -41.25 L 62.203125 -91.09375 L 82.375 -91.09375 L 82.375 -39.8125 C 82.375 -25.5 78.835938 -15.066406 71.765625 -8.515625 C 64.691406 -1.972656 55.648438 1.296875 44.640625 1.296875 Z M 44.640625 1.296875 "/></g></g></g><g fill="#ffffff" fill-opacity="1"><g transform="translate(270.244426, 149.373417)"><g><path d="M 27.203125 -73.390625 L 27.203125 -54 L 61.8125 -54 L 61.8125 -38.25 L 27.203125 -38.25 L 27.203125 -17.703125 L 68.3125 -17.703125 L 68.3125 0 L 6.765625 0 L 6.765625 -91.09375 L 68.3125 -91.09375 L 68.3125 -73.390625 Z M 27.203125 -73.390625 "/></g></g></g></g></g><g transform="matrix(1, 0, 0, 1, 490, 0)"><g clip-path="url(#71bee1c3c4)"><g fill="#212121" fill-opacity="1"><g transform="translate(2.61364, 147.725457)"><g><path d="M 46.71875 1.171875 C 37.957031 1.171875 30.429688 -0.972656 24.140625 -5.265625 C 17.847656 -9.566406 13.070312 -15.316406 9.8125 -22.515625 C 6.5625 -29.710938 4.9375 -37.519531 4.9375 -45.9375 C 4.9375 -54.351562 6.5625 -62.140625 9.8125 -69.296875 C 13.070312 -76.453125 17.847656 -82.175781 24.140625 -86.46875 C 30.429688 -90.757812 37.957031 -92.90625 46.71875 -92.90625 C 57.382812 -92.90625 66.097656 -89.78125 72.859375 -83.53125 C 79.628906 -77.289062 84.015625 -69.226562 86.015625 -59.34375 L 66.359375 -59.34375 C 65.316406 -63.851562 63.082031 -67.625 59.65625 -70.65625 C 56.226562 -73.695312 52 -75.21875 46.96875 -75.21875 C 40.03125 -75.21875 34.804688 -72.503906 31.296875 -67.078125 C 27.785156 -61.660156 26.03125 -54.613281 26.03125 -45.9375 C 26.03125 -37.082031 27.785156 -29.96875 31.296875 -24.59375 C 34.804688 -19.21875 40.03125 -16.53125 46.96875 -16.53125 C 51.914062 -16.53125 56.054688 -18.003906 59.390625 -20.953125 C 62.734375 -23.898438 64.972656 -27.410156 66.109375 -31.484375 L 85.484375 -31.484375 C 83.578125 -21.941406 79.257812 -14.113281 72.53125 -8 C 65.8125 -1.882812 57.207031 1.171875 46.71875 1.171875 Z M 46.71875 1.171875 "/></g></g></g><g fill="#212121" fill-opacity="1"><g transform="translate(93.021344, 147.725457)"><g><path d="M 37.46875 -31.875 L 26.9375 -31.875 L 26.9375 0 L 6.765625 0 L 6.765625 -91.09375 L 41.375 -91.09375 C 48.582031 -91.09375 54.675781 -89.703125 59.65625 -86.921875 C 64.644531 -84.148438 68.351562 -80.484375 70.78125 -75.921875 C 73.21875 -71.367188 74.4375 -66.445312 74.4375 -61.15625 C 74.4375 -55.257812 72.957031 -49.945312 70 -45.21875 C 67.050781 -40.488281 62.71875 -36.953125 57 -34.609375 L 76.515625 0 L 55.296875 0 Z M 26.9375 -48.40625 L 38.125 -48.40625 C 42.8125 -48.40625 46.757812 -49.378906 49.96875 -51.328125 C 53.175781 -53.285156 54.78125 -56.5625 54.78125 -61.15625 C 54.78125 -65.582031 53.195312 -68.726562 50.03125 -70.59375 C 46.863281 -72.457031 42.894531 -73.390625 38.125 -73.390625 L 26.9375 -73.390625 Z M 26.9375 -48.40625 "/></g></g></g><g fill="#212121" fill-opacity="1"><g transform="translate(172.111801, 147.725457)"><g><path d="M 27.203125 -73.390625 L 27.203125 -54 L 61.8125 -54 L 61.8125 -38.25 L 27.203125 -38.25 L 27.203125 -17.703125 L 68.3125 -17.703125 L 68.3125 0 L 6.765625 0 L 6.765625 -91.09375 L 68.3125 -91.09375 L 68.3125 -73.390625 Z M 27.203125 -73.390625 "/></g></g></g><g fill="#212121" fill-opacity="1"><g transform="translate(245.73877, 147.725457)"><g><path d="M 58.5625 -21.078125 L 29.40625 -21.078125 L 22.90625 0 L 2.34375 0 L 34.75 -91.09375 L 53.609375 -91.09375 L 85.75 0 L 65.1875 0 Z M 53.609375 -36.5625 L 44.25 -65.96875 L 43.46875 -65.96875 L 34.359375 -36.5625 Z M 53.609375 -36.5625 "/></g></g></g><g fill="#212121" fill-opacity="1"><g transform="translate(333.284647, 147.725457)"><g><path d="M 72.609375 -73.390625 L 48.671875 -73.390625 L 48.671875 0 L 28.5 0 L 28.5 -73.390625 L 4.546875 -73.390625 L 4.546875 -91.09375 L 72.609375 -91.09375 Z M 72.609375 -73.390625 "/></g></g></g><g fill="#212121" fill-opacity="1"><g transform="translate(410.553942, 147.725457)"><g><path d="M 7.671875 -91.09375 L 28.109375 -91.09375 L 28.109375 0 L 7.671875 0 Z M 7.671875 -91.09375 "/></g></g></g><g fill="#212121" fill-opacity="1"><g transform="translate(446.456847, 147.725457)"><g><path d="M 1.171875 -91.09375 L 21.46875 -91.09375 L 42.9375 -21.734375 L 43.71875 -21.734375 L 65.0625 -91.09375 L 85.359375 -91.09375 L 56.21875 0.125 L 30.3125 0.125 Z M 1.171875 -91.09375 "/></g></g></g><g fill="#212121" fill-opacity="1"><g transform="translate(532.831949, 147.725457)"><g><path d="M 27.203125 -73.390625 L 27.203125 -54 L 61.8125 -54 L 61.8125 -38.25 L 27.203125 -38.25 L 27.203125 -17.703125 L 68.3125 -17.703125 L 68.3125 0 L 6.765625 0 L 6.765625 -91.09375 L 68.3125 -91.09375 L 68.3125 -73.390625 Z M 27.203125 -73.390625 "/></g></g></g></g></g></svg>